<svg xmlns="http://www.w3.org/2000/svg" width="112" height="61" viewBox="0 0 112 61" fill="none" class="injected-svg" data-src="/_next/static/media/logo-white.2a1c8cbf.svg" xmlns:xlink="http://www.w3.org/1999/xlink">
	<g clip-path="url(#clip0_746_18533-5)">
		<path d="M69.2519 0V5.04689C69.2519 5.04689 68.6721 5.04689 68.3407 5.04689C63.536 5.04689 58.7312 5.04689 53.9265 5.04689C52.7667 5.04689 52.4354 5.37784 52.4354 6.53614C52.4354 7.19803 52.4354 7.85992 52.4354 8.5218C52.4354 9.4319 52.8496 9.76284 53.678 9.76284C57.2401 9.76284 60.8022 9.76284 64.3644 9.76284C66.6011 9.76284 68.5064 11.0866 69.0034 13.3205C69.2519 14.4788 69.2519 15.8026 69.2519 16.9609C69.2519 18.3674 69.2519 19.7739 68.9206 21.0977C68.4235 23.4143 66.4354 24.4071 64.53 24.4071C57.4886 24.4071 50.3644 24.4071 43.3229 24.4071C41.9975 24.4071 40.6721 23.4143 40.5892 21.8423C40.5892 20.6013 39.5951 19.8566 38.6839 20.4358C38.2697 20.684 38.0212 21.3459 37.9383 21.7596C37.7727 23.2488 36.6957 24.3244 35.2046 24.4071C32.8851 24.4071 30.6484 24.4071 28.3289 24.4071C25.7608 24.4071 23.607 22.1732 23.6898 19.6912C23.6898 17.9537 23.6898 16.1335 23.6898 14.3961C23.6898 11.914 25.7608 9.68011 28.4117 9.68011C31.9738 9.68011 35.4531 9.68011 39.0153 9.68011C40.2579 9.68011 40.5064 9.34916 40.5064 8.10812C40.5064 7.52897 40.5064 6.94982 40.5064 6.37067C40.5064 5.04689 39.9265 4.96416 39.0153 4.96416C35.2874 4.96416 31.4768 4.96416 27.749 4.96416H23.6898V0H24.6011C29.9028 0 35.2046 0 40.4235 0C42.5774 0 44.7312 1.07557 45.3111 3.64038C45.4768 4.38501 45.5596 5.12963 45.5596 5.95699C45.5596 10.0111 45.5596 13.9824 45.5596 18.0364C45.5596 19.2775 45.5596 19.2775 46.8022 19.5257C47.962 19.6912 48.9561 20.9322 49.0389 22.3387C49.0389 23.0833 49.6188 23.7452 50.1987 23.7452C50.9443 23.7452 51.4413 23.1661 51.5241 22.3387C51.607 20.684 52.7667 19.6084 54.4235 19.6084C57.2401 19.6084 59.9738 19.6084 62.7904 19.6084C63.9502 19.6084 64.2815 19.2775 64.2815 18.1192C64.2815 17.4573 64.2815 16.7127 64.2815 16.0508C64.2815 15.3889 63.9502 14.8925 63.1218 14.8925C59.6425 14.8925 56.0803 14.8925 52.6011 14.8925C49.536 14.8925 47.465 12.7413 47.465 9.76284C47.465 8.19086 47.465 6.70161 47.465 5.12963C47.465 2.15114 49.536 0.165472 52.5182 0.082736C55.3348 0.082736 58.0685 0.082736 60.8851 0.082736C62.2105 0.082736 63.7845 0.992832 63.7016 2.73029C63.7016 3.64038 64.2815 4.21953 65.0271 4.21953C65.7727 4.21953 66.2697 3.64038 66.3525 2.73029C66.4354 1.07557 67.7608 0 69.4176 0.165472L69.2519 0ZM34.7076 14.8097C33.0508 14.8097 31.394 14.8097 29.7372 14.8097C28.9916 14.8097 28.6602 15.1407 28.6602 15.8853C28.6602 16.7127 28.6602 17.6228 28.6602 18.4501C28.6602 19.112 28.9916 19.5257 29.6543 19.5257C32.8851 19.5257 36.1158 19.5257 39.3466 19.5257C39.8437 19.5257 40.3407 19.2775 40.3407 18.6983C40.3407 17.7055 40.4235 16.7127 40.3407 15.8026C40.3407 15.1407 39.8437 14.8097 39.0981 14.8097C37.607 14.8097 36.1158 14.8097 34.5419 14.8097H34.7076Z" fill="white"></path>
		<path d="M94.8549 31.2738V26.2269C95.6004 26.2269 96.4288 26.2269 97.1744 26.2269C98.417 26.2269 99.7425 26.2269 100.985 26.3923C102.89 26.5578 103.305 27.6334 103.553 29.2054C103.636 30.0327 104.05 30.3637 104.796 30.3637C105.458 30.3637 105.955 29.7845 105.955 29.0399C106.038 27.2197 107.032 26.4751 108.689 26.2269C109.766 26.0614 110.843 26.2269 112.003 26.2269V31.2738H111.174C109.103 31.2738 107.115 31.2738 105.044 31.2738C103.719 31.2738 103.47 31.522 103.47 32.8457C103.47 36.7343 103.47 40.7057 103.47 44.5942C103.47 45.6698 103.553 45.7526 104.63 45.7526C105.458 45.7526 106.37 45.7526 107.281 45.7526V50.7994H106.37C95.6005 50.7994 84.8312 50.7994 74.062 50.7994C72.2395 50.7994 70.9141 49.5584 70.9141 47.6555C70.9141 42.1949 70.9141 36.7343 70.9141 31.3565C70.9141 28.7917 72.8194 26.6405 75.3046 26.4751C76.133 26.4751 76.8786 26.3096 77.707 26.3096C81.3519 26.3096 84.9969 26.3096 88.6419 26.4751C90.7957 26.5578 92.5354 28.2125 92.701 30.4464C92.8667 33.9213 92.701 37.3962 92.701 41.0366H91.8726C87.0679 41.0366 82.2632 41.0366 77.5413 41.0366C76.2987 41.0366 75.9673 41.3675 75.9673 42.6086C75.9673 43.1877 75.9673 43.8496 75.9673 44.4288C75.9673 45.3389 76.2987 45.7526 77.2928 45.7526C81.0206 45.7526 84.7484 45.7526 88.3933 45.7526C90.133 45.7526 91.1271 46.7454 91.2928 48.4001C91.2928 49.3102 91.9555 49.8894 92.6182 49.8894C93.1981 49.8894 93.8608 49.1447 93.8608 48.4001C94.0265 46.6626 95.0206 45.7526 96.843 45.6698C98.0857 45.6698 98.417 45.4216 98.417 44.0978C98.417 40.292 98.417 36.5689 98.417 32.763C98.417 31.6874 98.0028 31.2738 96.9259 31.191C96.5945 31.191 96.2632 31.191 95.849 31.191C95.5176 31.191 95.1862 31.191 94.772 31.191L94.8549 31.2738ZM81.9318 35.9897C83.5058 35.9897 85.0797 35.9897 86.6537 35.9897C87.4821 35.9897 87.8135 35.576 87.8963 34.9141C87.8963 34.1695 87.8963 33.3422 87.8963 32.5975C87.8963 31.8529 87.3993 31.3565 86.6537 31.3565C83.5886 31.3565 80.4407 31.3565 77.3756 31.3565C76.63 31.3565 76.133 31.9356 76.133 32.6803C76.133 33.4249 76.133 34.0868 76.133 34.8314C76.133 35.6588 76.5472 35.9897 77.3756 35.9897C78.9496 35.9897 80.5235 35.9897 82.0975 35.9897H81.9318Z" fill="white"></path>
		<path d="M52.3579 60.4802H47.3047V59.4873C47.3047 49.7245 47.3047 39.8789 47.3047 30.1161C47.3047 27.634 48.8787 26.3102 51.0325 26.3102C55.3402 26.3102 59.6479 26.2275 63.8727 26.3102C66.3579 26.3102 68.1804 27.303 68.926 29.7024C69.0917 30.2815 69.1745 30.9434 69.2573 31.5226C69.2573 36.8177 69.2573 42.1128 69.2573 47.4079C69.2573 49.3108 67.7662 50.8828 65.8609 50.8001C63.21 50.7173 60.5591 50.7173 57.9082 50.8001C55.8372 50.8828 54.926 49.4763 54.7603 47.9043C54.7603 47.0769 54.2633 46.746 53.6005 46.5805C53.1035 46.415 52.3579 47.2424 52.2751 47.9043C52.2751 48.0698 52.2751 48.318 52.2751 48.4834C52.2751 52.1238 52.2751 55.7642 52.2751 59.4046V60.3974L52.3579 60.4802ZM52.3579 38.6379C52.3579 40.6235 52.3579 42.6092 52.3579 44.5121C52.3579 45.4222 52.6893 45.7532 53.6005 45.7532C56.6656 45.7532 59.7307 45.7532 62.7958 45.7532C63.8727 45.7532 64.1213 45.4222 64.1213 44.3466C64.1213 40.4581 64.1213 36.5695 64.1213 32.6809C64.1213 31.8535 63.6242 31.2744 62.7958 31.2744C59.7307 31.2744 56.6656 31.2744 53.6005 31.2744C52.6065 31.2744 52.2751 31.6053 52.2751 32.6809C52.2751 34.6665 52.2751 36.6522 52.2751 38.5551L52.3579 38.6379Z" fill="white"></path>
		<path d="M21.7041 19.5257V24.5726H20.7101C15.4911 24.5726 10.1893 24.5726 4.97041 24.5726C2.65089 24.5726 0.828402 23.4143 0.16568 21.0149C0.0828402 20.684 0 20.3531 0 20.0221C0 14.8925 0 9.84558 0 4.71595C0 2.89576 1.49112 0.579152 3.56213 0.248208C4.30769 0 4.97041 0 5.71598 0C8.20118 0 10.6864 0 13.1716 0C14.7456 0 16.2367 1.1583 16.1538 2.81302C16.1538 3.55765 16.7337 4.21953 17.3964 4.21953C17.9763 4.21953 18.5562 3.55765 18.5562 2.89576C18.6391 1.24104 19.8817 0.082736 21.6213 0.082736V5.04689H20.7101C15.9053 5.04689 11.1834 5.04689 6.3787 5.04689C5.30177 5.04689 4.97041 5.2951 4.97041 6.37067C4.97041 10.2593 4.97041 14.1479 4.97041 18.1192C4.97041 19.1947 5.21893 19.443 6.3787 19.443C11.1006 19.443 15.9053 19.443 20.6272 19.443H21.6213L21.7041 19.5257Z" fill="white"></path>
		<path d="M90.8787 10.921V12.3275H89.3047V0.248047H90.7958V4.71579C91.6242 3.72296 92.3698 3.06107 93.5295 2.97833C95.1035 2.8956 96.429 3.39201 97.0917 4.88126C98.0029 6.78419 98.0029 8.60438 97.0917 10.5073C96.0976 12.7412 92.5355 13.4031 90.7958 10.921H90.8787ZM96.429 7.77702C96.429 7.77702 96.429 7.77702 96.3461 7.77702C96.3461 7.2806 96.2633 6.70145 96.0976 6.20504C95.7662 5.21221 95.1863 4.46758 94.1094 4.30211C93.0325 4.13664 91.9556 4.38485 91.4585 5.37768C90.6301 6.94966 90.5473 8.68712 91.4585 10.2591C92.4526 11.9138 94.9378 11.7483 95.7662 10.0936C96.0976 9.43174 96.2633 8.60438 96.429 7.85976V7.77702Z" fill="white"></path>
		<path d="M88.0588 12.3278H86.4848C86.4848 12.3278 86.4848 11.7486 86.4848 11.4177C85.2422 12.3278 83.9168 12.9069 82.3428 12.4105C81.2659 12.0796 80.5203 11.4177 80.4375 10.3421C80.4375 9.51476 80.9345 8.52193 81.8458 8.19098C82.8399 7.7773 83.8339 7.44636 84.828 7.03268C85.1594 6.94994 85.4079 6.78447 85.6564 6.70173C86.1535 6.45353 86.6505 6.03985 86.4848 5.37796C86.3192 4.63334 85.7393 4.38513 85.0766 4.30239C83.6683 4.13692 82.6742 4.30239 82.0115 6.37079H80.6032C80.9345 3.30956 84.4138 2.39946 86.6505 3.6405C87.3961 4.05418 87.8931 4.79881 87.8931 5.62617C87.8931 7.86004 87.8931 10.0939 87.8931 12.4105L88.0588 12.3278ZM86.4848 7.36362C85.3251 7.86004 84.1653 8.27372 83.0884 8.77013C82.757 8.93561 82.5085 9.18381 82.26 9.34929C81.7629 9.8457 81.9286 10.6731 82.4257 11.0867C83.3369 11.7486 85.6564 11.4177 86.3192 10.4249C86.402 10.2594 86.4848 10.0939 86.4848 9.92844C86.4848 9.10108 86.4848 8.19098 86.4848 7.28089V7.36362Z" fill="white"></path>
		<path d="M105.867 6.20474C104.955 6.53568 104.541 6.20474 104.21 5.37738C103.713 4.13634 101.31 3.72266 100.316 4.71549C99.6536 5.37738 99.9849 6.28748 100.979 6.70116C101.642 6.94936 102.47 7.11484 103.133 7.36304C103.878 7.61125 104.624 7.85946 105.204 8.35587C106.281 9.26597 106.198 10.7552 105.038 11.748C103.133 13.32 99.6536 12.7409 98.6595 10.4243C98.4938 10.0933 98.411 9.67965 98.3281 9.26597H99.7364C100.151 10.6725 100.979 11.5826 102.636 11.4998C103.05 11.4998 103.547 11.3344 103.878 11.0862C104.21 10.838 104.458 10.3415 104.458 9.92786C104.458 9.59691 104.127 9.1005 103.796 8.93503C102.967 8.60408 102.139 8.43861 101.31 8.10767C100.565 7.77672 99.7364 7.44578 99.0737 6.94936C97.9139 5.95653 98.2453 4.21908 99.5707 3.55719C101.145 2.72983 102.719 2.64709 104.21 3.55719C105.121 4.13634 105.535 5.04644 105.701 6.122L105.867 6.20474Z" fill="white"></path>
		<path d="M71.7422 0.248047H73.2333V11.0865H79.612V12.3275H71.7422V0.248047Z" fill="white"></path>
	</g>
	<defs>
		<clipPath id="clip0_746_18533-5">
			<rect width="112" height="60.48" fill="white"></rect>
		</clipPath>
	</defs>
</svg>