<svg xmlns="http://www.w3.org/2000/svg" width="61" height="53" fill="none" viewBox="0 0 61 53">
  <path fill="#fff" d="m51.42 15.393 2.828 1.976 5.785-4.03-8.614-6.022.002 8.076Zm0 5.365.016 8.07L60.5 22.55l-.044-8.084-9.035 6.293ZM.937 13.359l5.777 4.03 2.832-1.974-.01-8.063-8.6 6.007Zm-.435 1.116L.5 22.546l9.063 6.307-.026-8.074-9.035-6.304Zm10.196-7.94-.002 8.064 9.065-6.3L19.75.237l-9.052 6.3ZM41.264.238l-.001 8.07 8.99 6.27V6.504L41.265.238Zm0 27.662-.006 8.061 9.014-6.314-.017-8.074-8.991 6.328Zm-30.556-6.306.024 8.074 9.018 6.297-.002-8.063-9.04-6.308Zm18.81-15.325L20.915.241l-.002 8.062 2.85 1.99 5.756-4.024ZM27.105 17.45l2.805-1.959.027-8.09-8.606 6.014 5.774 4.034Zm-6.192 5.093 2.814 1.973 5.78-4.032-8.594-6.006v8.065Zm.002 13.421 9.002-6.285.022-8.076-9.026 6.296.002 8.065ZM40.097 8.307 40.1.245l-8.55 6.026 5.731 4.01 2.817-1.974Zm-3.13 3.169-5.864-4.089-.012 8.031 2.83 1.978 5.757-4.031-2.711-1.89ZM31.09 29.695l9.002 6.272.007-8.066-8.994-6.3-.015 8.095Zm6.204-5.182 2.806-1.965.01-8.063-8.569 5.999 5.753 4.03ZM16.312 41.727h-2.047v10.97h2.047v-10.97Zm5.105 7.109v3.859h-2.04V41.727h3.573a6.292 6.292 0 0 1 1.903.258c.488.145.94.39 1.328.72.344.302.61.682.774 1.108.17.45.255.93.25 1.411a3.9 3.9 0 0 1-.265 1.46 3.03 3.03 0 0 1-.796 1.143 3.674 3.674 0 0 1-1.328.744 5.92 5.92 0 0 1-1.866.265h-1.533Zm0-1.594h1.533c.332.006.662-.042.978-.14.257-.082.493-.219.69-.402a1.64 1.64 0 0 0 .41-.637 2.42 2.42 0 0 0 .137-.839 2.196 2.196 0 0 0-.137-.797 1.567 1.567 0 0 0-.41-.608 1.826 1.826 0 0 0-.693-.383 3.224 3.224 0 0 0-.978-.133h-1.53v3.939Zm7.761-2.328h1.486a.62.62 0 0 1 .357.097.43.43 0 0 1 .183.252l1.115 4.157c.06.226.11.456.152.666.043.21.075.435.11.654.056-.219.115-.435.179-.654.064-.22.13-.44.2-.666l1.286-4.179a.456.456 0 0 1 .181-.25.534.534 0 0 1 .32-.1h.828a.57.57 0 0 1 .343.1c.087.06.15.149.18.25l1.272 4.26c.066.217.127.427.178.632.052.205.107.41.152.618.035-.218.075-.434.118-.653a8.39 8.39 0 0 1 .162-.674l1.156-4.163a.43.43 0 0 1 .183-.251.576.576 0 0 1 .333-.097h1.42l-2.462 7.776H37.1c-.163 0-.279-.111-.35-.334l-1.403-4.497a12.977 12.977 0 0 1-.124-.445 5.784 5.784 0 0 1-.096-.444c-.03.152-.064.304-.1.456a7.195 7.195 0 0 1-.12.457l-1.418 4.483a.412.412 0 0 1-.411.333h-1.433l-2.467-7.784Zm16.271-.122c.462-.005.92.075 1.353.236.4.15.764.383 1.065.686.308.316.546.694.698 1.108.174.48.259.987.25 1.498a2.72 2.72 0 0 1-.018.353.55.55 0 0 1-.069.219.277.277 0 0 1-.132.114.564.564 0 0 1-.213.033h-4.809c.057.799.271 1.388.645 1.76a2.007 2.007 0 0 0 1.488.562c.266.006.53-.03.785-.107a3.64 3.64 0 0 0 .577-.234c.164-.087.304-.164.431-.236a.737.737 0 0 1 .361-.106.39.39 0 0 1 .198.047.448.448 0 0 1 .144.128l.546.683c-.201.235-.437.44-.698.608a4.01 4.01 0 0 1-.808.394 4.283 4.283 0 0 1-.858.208c-.28.04-.562.06-.845.061a4.156 4.156 0 0 1-1.51-.269 3.347 3.347 0 0 1-1.216-.797 3.714 3.714 0 0 1-.812-1.305 5.01 5.01 0 0 1-.297-1.801 4.302 4.302 0 0 1 .259-1.498 3.61 3.61 0 0 1 .739-1.217 3.5 3.5 0 0 1 1.176-.823 3.879 3.879 0 0 1 1.567-.305m.038 1.342c-.547 0-.974.152-1.283.456a2.282 2.282 0 0 0-.592 1.312h3.526a2.32 2.32 0 0 0-.097-.686 1.608 1.608 0 0 0-.304-.566 1.43 1.43 0 0 0-.511-.374c-.23-.1-.479-.148-.729-.142m7.878-5.366a3.03 3.03 0 1 0 0 6.058 3.03 3.03 0 0 0 0-6.058Zm0 5.538a2.514 2.514 0 1 1 0-5.028 2.514 2.514 0 0 1 0 5.028Zm.592-2.262a.818.818 0 0 0 .53-.806c0-.48-.305-.885-.974-.885h-1.053a.056.056 0 0 0-.055.053v2.771c0 .008.002.015.005.021a.055.055 0 0 0 .05.034h.368a.056.056 0 0 0 .054-.055v-1.052h.6l.504 1.075a.053.053 0 0 0 .049.032h.42a.053.053 0 0 0 .053-.053.033.033 0 0 0 0-.025l-.551-1.11Zm-.53-.304h-.551v-1.001h.564c.324 0 .547.172.547.511 0 .34-.196.49-.56.49Z"/>
<script xmlns="" type="text/javascript" src="chrome-extension://jccapkebeeiajkkdemacblkjhhhboiek/js/inPageScript.bundle.js"/></svg>